<svg width="30" height="30" viewBox="0 0 30 30" fill="none" xmlns="http://www.w3.org/2000/svg">
<path d="M15.0723 20.2131L9.21306 26.0723C8.50367 26.757 7.55626 27.1396 6.57037 27.1396C5.58448 27.1396 4.63707 26.757 3.92768 26.0723C3.57976 25.7258 3.3037 25.3139 3.11532 24.8604C2.92695 24.4069 2.82999 23.9207 2.82999 23.4296C2.82999 22.9386 2.92695 22.4523 3.11532 21.9988C3.3037 21.5453 3.57976 21.1335 3.92768 20.7869L9.7869 14.9277C10.0713 14.6434 10.231 14.2577 10.231 13.8556C10.231 13.4534 10.0713 13.0677 9.7869 12.7834C9.50254 12.499 9.11687 12.3393 8.71472 12.3393C8.31258 12.3393 7.9269 12.499 7.64255 12.7834L1.78333 18.6577C0.602965 19.9425 -0.0354109 21.6336 0.00151726 23.3779C0.0384454 25.1222 0.747823 26.7848 1.98151 28.0185C3.21519 29.2522 4.87779 29.9616 6.62209 29.9985C8.36639 30.0354 10.0575 29.397 11.3423 28.2167L17.2166 22.3575C17.501 22.0731 17.6607 21.6874 17.6607 21.2853C17.6607 20.8831 17.501 20.4975 17.2166 20.2131C16.9323 19.9287 16.5466 19.769 16.1444 19.769C15.7423 19.769 15.3566 19.9287 15.0723 20.2131ZM28.029 1.97101C26.7587 0.708571 25.0404 0 23.2495 0C21.4586 0 19.7403 0.708571 18.47 1.97101L12.5957 7.83023C12.4549 7.97103 12.3432 8.13818 12.267 8.32214C12.1908 8.50611 12.1516 8.70328 12.1516 8.9024C12.1516 9.10152 12.1908 9.29869 12.267 9.48266C12.3432 9.66662 12.4549 9.83378 12.5957 9.97458C12.7365 10.1154 12.9037 10.2271 13.0876 10.3033C13.2716 10.3795 13.4688 10.4187 13.6679 10.4187C13.867 10.4187 14.0642 10.3795 14.2481 10.3033C14.4321 10.2271 14.5992 10.1154 14.74 9.97458L20.5993 4.11536C21.3087 3.43072 22.2561 3.0481 23.242 3.0481C24.2278 3.0481 25.1752 3.43072 25.8846 4.11536C26.2326 4.46191 26.5086 4.87375 26.697 5.32725C26.8854 5.78075 26.9823 6.26698 26.9823 6.75805C26.9823 7.24912 26.8854 7.73535 26.697 8.18885C26.5086 8.64235 26.2326 9.05419 25.8846 9.40074L20.0254 15.26C19.8839 15.4003 19.7715 15.5674 19.6949 15.7514C19.6182 15.9354 19.5787 16.1328 19.5787 16.3321C19.5787 16.5315 19.6182 16.7289 19.6949 16.9129C19.7715 17.0969 19.8839 17.2639 20.0254 17.4043C20.1658 17.5458 20.3328 17.6582 20.5168 17.7349C20.7009 17.8115 20.8982 17.851 21.0976 17.851C21.297 17.851 21.4943 17.8115 21.6784 17.7349C21.8624 17.6582 22.0294 17.5458 22.1698 17.4043L28.029 11.53C29.2914 10.2597 30 8.54145 30 6.7505C30 4.95955 29.2914 3.24134 28.029 1.97101ZM10.1191 19.8809C10.2602 20.0208 10.4276 20.1316 10.6116 20.2067C10.7955 20.2819 10.9926 20.32 11.1913 20.3188C11.39 20.32 11.587 20.2819 11.771 20.2067C11.955 20.1316 12.1224 20.0208 12.2635 19.8809L19.6932 12.4512C19.9776 12.1668 20.1373 11.7811 20.1373 11.379C20.1373 10.9768 19.9776 10.5912 19.6932 10.3068C19.4088 10.0224 19.0232 9.86269 18.621 9.86269C18.2189 9.86269 17.8332 10.0224 17.5488 10.3068L10.1191 17.7365C9.97758 17.8769 9.86524 18.0439 9.78857 18.228C9.71191 18.412 9.67243 18.6094 9.67243 18.8087C9.67243 19.0081 9.71191 19.2054 9.78857 19.3895C9.86524 19.5735 9.97758 19.7405 10.1191 19.8809Z" fill="#27DEBF"/>
</svg>
